<svg width="99" height="74" viewBox="0 0 99 74" fill="none" xmlns="http://www.w3.org/2000/svg">
<path d="M8.33061 37.4608C8.66442 37.758 9.07953 38.0566 9.57449 38.3537C10.0694 38.6515 10.622 38.9211 11.2327 39.1595C11.8421 39.3994 12.5025 39.5944 13.2083 39.7429C13.9154 39.8915 14.6478 39.9661 15.4061 39.9661C16.9622 39.9661 18.1701 39.6915 19.0312 39.1407C19.8917 38.5907 20.3233 37.8297 20.3233 36.8586C20.3233 36.276 20.1787 35.7803 19.8895 35.373C19.6003 34.965 19.2017 34.599 18.6938 34.2751C18.1859 33.9518 17.5881 33.6569 16.901 33.3909C16.214 33.1257 15.4716 32.851 14.6737 32.5655C13.0795 31.9828 11.7594 31.4031 10.7119 30.8276C9.66441 30.2508 8.83205 29.6225 8.21407 28.9434C7.59753 28.2636 7.163 27.4998 6.91264 26.6512C6.66228 25.8033 6.53639 24.822 6.53639 23.7082C6.53639 22.5298 6.77379 21.4449 7.25005 20.455C7.72558 19.4643 8.39464 18.6092 9.25578 17.891C10.1162 17.1721 11.1407 16.6126 12.3299 16.2111C13.519 15.8104 14.8205 15.6089 16.2349 15.6089C17.6111 15.6089 18.819 15.7444 19.8593 16.0154C20.901 16.2858 21.801 16.609 22.56 16.9822C23.3182 17.3561 23.9448 17.7395 24.4391 18.133C24.934 18.5258 25.329 18.8447 25.624 19.0896L23.1959 22.8342C22.9758 22.6139 22.6456 22.3609 22.2017 22.0761C21.7593 21.7913 21.2406 21.5203 20.6506 21.2608C20.0593 21.0021 19.4219 20.7847 18.742 20.6101C18.0607 20.4347 17.3845 20.3477 16.7169 20.3477C16.0233 20.3477 15.4126 20.4253 14.8859 20.5811C14.3579 20.7362 13.9176 20.947 13.5651 21.2123C13.2104 21.4783 12.9442 21.7921 12.7651 22.1551C12.5838 22.5182 12.4939 22.9066 12.4939 23.3212C12.4939 23.827 12.6068 24.2604 12.8327 24.6235C13.0572 24.9865 13.3975 25.317 13.8543 25.6149C14.3104 25.9134 14.8917 26.204 15.5996 26.4896C16.3054 26.7758 17.1428 27.0925 18.1061 27.4426C19.5456 27.9614 20.7787 28.5021 21.8075 29.0652C22.8369 29.6297 23.6815 30.2711 24.3427 30.99C25.0053 31.7089 25.4938 32.5256 25.8089 33.4387C26.124 34.3533 26.2801 35.4121 26.2801 36.6173C26.2801 37.7058 26.0434 38.7392 25.5671 39.7176C25.0923 40.6959 24.411 41.554 23.524 42.2939C22.6369 43.0316 21.5578 43.6186 20.2852 44.052C19.0111 44.4868 17.5773 44.7035 15.9845 44.7035C14.737 44.7035 13.5831 44.5905 12.5227 44.3629C11.4615 44.1368 10.5083 43.852 9.6601 43.5092C8.81046 43.165 8.06875 42.7903 7.4335 42.3823C6.7961 41.9736 6.27236 41.588 5.86157 41.2257L8.33061 37.4608Z" fill="#0E64AD"/>
<path d="M46.7553 32.041H36.7288V39.5583H48.7617V44.2972H30.7324V16.0178H48.5689V20.7567H36.7288V27.3022H46.756V32.041H46.7553Z" fill="#0E64AD"/>
<path d="M66.5233 38.5481H58.4061L56.863 44.2972H50.8083L59.2924 16.0178H65.6557L74.1398 44.2972H68.0852L66.5233 38.5481ZM59.6773 33.8078H65.2499L62.5118 23.3591H62.396L59.6773 33.8078Z" fill="#0E64AD"/>
<path d="M77.609 44.2972V16.0178H86.5377C88.4521 16.0178 90.1427 16.3439 91.6082 16.9983C93.0743 17.6528 94.3017 18.5652 95.2909 19.737C96.2808 20.9088 97.0261 22.3075 97.5282 23.9323C98.0282 25.5578 98.2793 27.3341 98.2793 29.2632V31.0699C98.2793 33.0896 98.0131 34.9152 97.4786 36.5479C96.9469 38.1785 96.175 39.5678 95.165 40.7135C94.1571 41.86 92.9254 42.7441 91.4729 43.3659C90.0204 43.987 88.3751 44.2972 86.5377 44.2972H77.609ZM83.6061 20.7567V39.5583H85.7514C86.6269 39.5583 87.3974 39.4547 88.06 39.2482C88.7247 39.0409 89.2974 38.7496 89.7808 38.3749C90.2636 37.9995 90.6664 37.5495 90.9895 37.0262C91.3103 36.5023 91.5679 35.9261 91.7614 35.2993C91.9542 34.6724 92.0902 33.9999 92.1664 33.2817C92.2448 32.5635 92.2822 31.8229 92.2822 31.0598V29.2168C92.2822 27.9754 92.1794 26.8369 91.9743 25.802C91.7671 24.7672 91.4125 23.8779 90.9103 23.1337C90.4074 22.3901 89.7384 21.8075 88.8995 21.3871C88.0636 20.9675 87.0125 20.7567 85.7507 20.7567H83.6061Z" fill="#0E64AD"/>
<path d="M32.8481 5.80743C28.5028 2.37451 22.7101 0.273598 16.3468 0.264177C9.98432 0.25693 4.49157 2.60207 0.135498 6.02194L1.66642 7.3438C5.58652 4.15873 10.8757 2.21 16.6943 2.2187C22.3338 2.22885 27.4719 4.07611 31.3431 7.10174L32.8481 5.80743Z" fill="#0E64AD"/>
<path d="M5.85459 10.9582C8.68765 8.73987 12.456 7.3883 16.5919 7.39554C20.5976 7.40134 24.2544 8.67972 27.0486 10.7843L28.5968 9.45515C25.3393 6.95493 21.0458 5.43305 16.3401 5.4258C11.6329 5.41928 7.33443 6.92739 4.07043 9.41819" fill="#0E64AD"/>
<path d="M9.86739 14.4224C11.6537 13.1309 13.9594 12.3555 16.476 12.3599C18.9191 12.3627 21.1594 13.1005 22.9183 14.3289L24.5306 12.9469C22.3558 11.3685 19.5464 10.4133 16.4803 10.4089C13.3379 10.4046 10.4652 11.3945 8.26453 13.036L9.86739 14.4224Z" fill="#0E64AD"/>
<path d="M46.426 51.2498V65.7525C46.426 66.9954 46.2138 68.0824 45.7893 69.0166C45.3656 69.9507 44.7879 70.7327 44.0584 71.3639C43.3275 71.9951 42.4728 72.4698 41.4915 72.7872C40.5103 73.1053 39.4621 73.264 38.3477 73.264C37.1542 73.264 36.0592 73.0981 35.0628 72.7647C34.0664 72.4328 33.211 71.9458 32.4959 71.3037C31.7808 70.6638 31.2233 69.8761 30.824 68.9419C30.4247 68.0085 30.2255 66.9446 30.2255 65.7525V51.2498H34.8269V65.7409C34.8269 67.0715 35.1305 68.0513 35.7384 68.6825C36.3463 69.3122 37.2139 69.6282 38.3412 69.6282C39.4779 69.6282 40.3419 69.3209 40.9354 68.7049C41.5282 68.0889 41.8246 67.1019 41.8246 65.7416V51.2498H46.426Z" fill="#0E64AD"/>
<path d="M62.6859 64.0828H55.3176V72.951H50.7162V51.2498H64.2398V54.887H55.3176V60.4462H62.6859V64.0828Z" fill="#0E64AD"/>
<path d="M79.5107 63.5465H71.8165V69.3144H81.0495V72.9517H67.2158V51.2498H80.902V54.887H71.8165V59.91H79.5107V63.5465Z" fill="#0E64AD"/>
<path d="M84.9697 67.7047C85.2251 67.9322 85.5438 68.1612 85.9236 68.3895C86.3027 68.6171 86.7272 68.8243 87.197 69.0084C87.6646 69.1918 88.1711 69.3411 88.7128 69.4548C89.2552 69.5693 89.8171 69.6266 90.3991 69.6266C91.5919 69.6266 92.5199 69.4157 93.1811 68.9932C93.8415 68.5707 94.1725 67.9866 94.1725 67.2416C94.1725 66.7945 94.0609 66.414 93.8401 66.1009C93.6178 65.7886 93.312 65.5081 92.9228 65.2595C92.5322 65.011 92.0739 64.7856 91.5466 64.5805C91.0185 64.3776 90.4488 64.166 89.8372 63.9478C88.6142 63.5007 87.6006 63.0564 86.7963 62.6129C85.9927 62.1716 85.3531 61.6897 84.8805 61.1679C84.4071 60.6461 84.0747 60.0598 83.8819 59.4083C83.6891 58.7582 83.5934 58.0053 83.5934 57.1508C83.5934 56.2471 83.7754 55.4145 84.1409 54.6542C84.5064 53.894 85.0193 53.2389 85.6797 52.6867C86.3409 52.1359 87.1272 51.7054 88.0394 51.3974C88.9524 51.0902 89.9502 50.9358 91.0358 50.9358C92.0912 50.9358 93.0185 51.0394 93.8178 51.2474C94.6156 51.4554 95.3063 51.7033 95.889 51.9902C96.471 52.2765 96.9523 52.5707 97.3321 52.8729C97.7105 53.1744 98.0149 53.4193 98.2415 53.607L96.3775 56.4805C96.2098 56.3124 95.9552 56.1181 95.6149 55.8993C95.2746 55.6804 94.8775 55.4717 94.4235 55.2731C93.9703 55.0753 93.4818 54.9079 92.9595 54.7738C92.4365 54.6405 91.9185 54.5731 91.4063 54.5731C90.8732 54.5731 90.4049 54.6332 90.0006 54.7528C89.5955 54.8716 89.2581 55.0333 88.9869 55.2369C88.7157 55.4413 88.5114 55.6819 88.3725 55.9609C88.2344 56.2392 88.1653 56.5377 88.1653 56.8559C88.1653 57.2436 88.2509 57.5762 88.4243 57.8552C88.5962 58.1335 88.8588 58.3872 89.2092 58.6162C89.5581 58.8445 90.0049 59.0684 90.5466 59.2865C91.0898 59.5061 91.7307 59.7496 92.471 60.0185C93.5761 60.4163 94.5228 60.8309 95.3113 61.2635C96.1012 61.6976 96.7487 62.1883 97.2573 62.7405C97.7659 63.2927 98.14 63.9196 98.3818 64.6204C98.6235 65.3219 98.7451 66.135 98.7451 67.0597C98.7451 67.8946 98.5616 68.6881 98.1976 69.4382C97.8321 70.189 97.3098 70.8477 96.6278 71.4159C95.948 71.9819 95.1192 72.4319 94.143 72.7646C93.166 73.0979 92.0667 73.2639 90.843 73.2639C89.8862 73.2639 89.0006 73.1776 88.1876 73.0037C87.3747 72.8298 86.6416 72.6109 85.9898 72.3486C85.3395 72.0855 84.7704 71.7964 84.2812 71.484C83.7927 71.1709 83.3905 70.8753 83.0754 70.5962L84.9697 67.7047Z" fill="#0E64AD"/>
</svg>
