<svg width="28" height="23" viewBox="0 0 28 23" fill="none" xmlns="http://www.w3.org/2000/svg">
<path d="M17.7333 2.80081C17.7333 4.34719 16.2706 5.6 14.4658 5.6C12.6626 5.6 11.2 4.34719 11.2 2.80081C11.2 1.25388 12.6626 4.32235e-08 14.4658 4.32235e-08C16.2706 -0.0002688 17.7333 1.25362 17.7333 2.80081Z" fill="white"/>
<path d="M11.1992 22.2232C11.2145 22.043 11.0173 21.9886 10.4956 21.9437C6.48547 21.6009 3.70808 20.5448 3.70808 19.4933C3.70808 18.5746 5.89344 17.776 9.11701 17.3613C9.2029 17.3486 9.36316 17.354 9.37814 17.2593C9.39054 17.1646 9.11989 16.9504 8.95935 16.8898C8.79707 16.8292 8.53853 16.787 8.36819 16.8038C3.38584 17.2874 -0.00374389 18.3409 3.10343e-06 19.5582C0.00432655 20.8673 4.04301 21.9689 9.65974 22.3541C10.0947 22.3852 11.1755 22.4885 11.1992 22.2232Z" fill="white"/>
<path d="M20.6966 16.8375C20.6882 16.8361 20.6449 16.8347 20.6031 16.8521C20.5655 16.8689 20.362 17.1103 20.433 17.1265C20.5197 17.1442 20.5793 17.1565 20.602 17.1607C22.8375 17.6187 24.148 18.0873 24.148 18.8653C24.148 19.7028 22.5096 20.4769 19.9717 20.9358C19.9465 20.94 19.8895 20.9489 19.8839 20.9181C19.8796 20.8853 19.9327 20.8749 19.9552 20.8671C21.1141 20.4607 21.8097 19.9621 21.8097 19.4024C21.8097 18.5985 20.7331 18.0027 18.1506 17.5021C17.0517 17.2905 15.7269 16.7218 15.6629 14.9919C15.6629 14.3022 15.7244 13.75 16.0655 13.1794C16.4077 12.6085 17.0172 11.5776 17.0172 10.445C17.0172 8.60246 15.5054 7.44688 14.0329 7.46706C12.5596 7.48387 11.1688 8.60246 11.1688 10.445C11.1688 11.6034 12.1051 12.8394 12.2979 13.2217C12.5057 13.6298 12.6999 14.1573 12.6999 15.032C12.6999 16.4396 10.8451 17.3188 9.97647 17.5427C8.37848 17.9533 6.53345 18.3667 6.53345 19.4018C6.53345 20.0829 7.0983 20.5728 8.75917 20.98C9.26394 21.0919 10.1337 21.2606 10.7755 21.3203C11.5141 21.3892 12.5012 21.468 13.817 21.3494C14.3872 21.2987 14.6898 21.297 14.7095 21.4991C14.7317 21.7233 14.3513 21.8122 14.203 21.8424C13.5534 21.9711 12.7797 22.0221 12.7822 22.1771C12.7873 22.3887 13.2659 22.3991 13.9144 22.3999C19.6115 22.4193 28.0068 21.1045 28.0001 19.3928C27.9967 18.196 25.1719 17.3378 20.6966 16.8375Z" fill="white"/>
</svg>
