<svg width="194" height="118" viewBox="0 0 194 118" fill="none" xmlns="http://www.w3.org/2000/svg">
<path d="M75.689 71.4785C73.9767 70.284 72.3585 69.1607 71.1567 67.286C70.5912 66.4079 69.8764 65.6406 69.0281 64.9919C73.8667 64.2009 77.6056 62.073 80.1506 58.6478C84.2744 53.1105 84.0623 45.6905 83.2768 42.1782C82.9469 40.6911 83.049 38.6027 83.1669 36.3878C83.4732 30.3205 83.8895 21.9987 74.4872 20.8121C70.0178 20.2505 67.3157 18.8899 65.1399 17.8062C61.6838 16.0738 59.1859 14.816 53.4361 18.7396C50.6398 20.646 48.3462 21.8563 46.5003 22.8293C44.1752 24.0554 42.345 25.0205 40.7819 26.6738C40.1928 22.5445 39.0617 18.3204 37.1922 14.1357C31.6702 1.748 24.9072 -0.372002 20.2178 0.0472514C14.0753 0.585161 9.07959 5.75859 8.19984 9.23127C7.54788 11.7943 8.01132 14.1278 8.42763 16.1925C9.06388 19.3962 9.27596 21.1365 6.64457 22.6236C3.97391 24.1266 2.61501 28.1926 3.01561 33.5163C3.35337 38.049 5.14429 43.436 8.28624 45.1367C8.35694 46.7663 8.76539 51.3148 10.9883 54.5739C6.06331 55.096 3.43978 57.303 2.08088 59.1699C0.0543214 61.9543 -0.52694 65.7909 0.533469 69.4297C1.04404 71.1937 1.64886 72.586 2.183 73.82C3.29053 76.383 3.96605 77.9334 2.7564 80.3857C1.34252 83.2413 3.29053 87.9559 5.99262 90.8591C8.52189 93.5723 11.3732 94.5295 13.8239 93.5012C14.1853 93.3429 14.6801 93.1926 14.9707 93.335C15.4578 93.5803 15.7719 94.8064 16.0469 95.8822C16.6517 98.2553 17.5393 101.704 21.6081 101.704C22.0951 101.704 22.6293 101.657 23.2184 101.546C25.5748 101.111 27.5464 99.6238 29.1645 97.5117C29.9971 101.862 33.2334 102.922 36.3832 103.959C39.4073 104.948 42.5335 105.976 44.6308 109.725C47.6392 115.097 53.2555 118 57.6463 118C58.4554 118 59.2252 117.905 59.9243 117.699C62.1393 117.066 63.4118 115.437 63.3333 113.341C63.2312 110.548 63.5375 109.559 64.0088 108.072C64.4408 106.696 64.975 105.011 65.407 101.491C66.5773 101.997 67.5985 102.25 68.4939 102.25C68.816 102.25 69.1223 102.218 69.413 102.147C79.6479 99.8216 84.2901 93.6198 83.2218 83.7159C82.3892 76.1457 78.831 73.6618 75.689 71.4785ZM69.0045 100.344C68.439 100.47 67.4021 100.423 65.5876 99.5447C65.7055 95.6211 62.9091 92.4174 60.749 90.3132C60.3877 89.9573 59.8064 89.9731 59.453 90.337C59.0995 90.7009 59.1152 91.2862 59.4765 91.6422C62.5949 94.6719 63.946 97.2744 63.7417 99.8137C63.7025 99.9403 63.6946 100.067 63.7025 100.193C63.2704 104.291 62.7049 106.079 62.2493 107.511C61.7623 109.061 61.3696 110.287 61.4874 113.404C61.5502 114.978 60.3877 115.642 59.4058 115.919C56.1539 116.845 49.5794 114.851 46.2018 108.816C43.7511 104.433 39.965 103.199 36.9173 102.203C33.1862 100.984 30.6884 100.162 30.7512 95.0041C34.2702 88.5809 35.4956 79.1358 34.8515 74.2234C34.7886 73.7172 34.333 73.3612 33.8225 73.4324C33.3198 73.4957 32.9663 73.9624 33.037 74.4686C33.6811 79.3968 32.3615 87.9322 29.3295 93.7306C29.1017 93.8888 28.9446 94.1498 28.9367 94.4504C28.9367 94.4504 28.9367 94.4504 28.9367 94.4583C27.3343 97.2586 25.2921 99.2916 22.8571 99.7425C19.3302 100.391 18.5919 98.548 17.7907 95.4313C17.3822 93.8255 16.9895 92.3067 15.7562 91.6897C15.0179 91.3179 14.146 91.3574 13.0856 91.8083C10.6663 92.8288 8.23911 90.6138 7.30438 89.6092C4.79867 86.9197 3.44763 83.0752 4.36665 81.2242C5.9612 78.0046 5.01861 75.8451 3.83252 73.1001C3.32195 71.9136 2.74069 70.5767 2.26154 68.9234C1.57031 66.5345 1.5389 63.0143 3.53404 60.2694C5.34851 57.7776 8.52974 56.4091 12.7321 56.3142C15.3478 56.2588 17.8771 56.599 20.2335 57.3267C20.7127 57.477 21.2311 57.2002 21.3803 56.7176C21.5296 56.2272 21.2547 55.713 20.7755 55.5627C18.3876 54.8191 15.8505 54.4552 13.2191 54.4631C10.1243 51.1803 10.085 44.6067 10.085 44.5435C10.085 44.1558 9.84936 43.8157 9.48804 43.6812C7.21012 42.8269 5.20713 38.3971 4.83009 33.3818C4.49233 28.9362 5.55274 25.3448 7.52432 24.2374C11.4518 22.0304 10.8234 18.882 10.2185 15.8365C9.8258 13.8826 9.4252 11.8575 9.96719 9.69798C10.6977 6.81859 15.1121 2.34919 20.3671 1.89038C24.4673 1.53441 30.437 3.4962 35.527 14.9031C37.6242 19.5939 38.7475 24.3481 39.2188 28.952C39.2109 29.0627 39.2188 29.1656 39.2502 29.2684C40.342 40.7702 37.3258 51.3306 34.9143 57.6194C34.7336 58.094 34.9693 58.6319 35.4406 58.8139C35.5505 58.8534 35.6605 58.8772 35.7705 58.8772C36.1397 58.8772 36.4853 58.6557 36.6267 58.2839C39.101 51.8448 42.1722 41.0629 41.0882 29.2526C42.6357 26.9586 44.4344 26.0093 47.3486 24.4668C49.2338 23.4701 51.5824 22.236 54.4651 20.2742C59.3273 16.9598 60.9925 17.7983 64.323 19.4674C66.6166 20.6223 69.4758 22.0541 74.2516 22.6553C81.9651 23.6283 81.643 30.0753 81.3288 36.3008C81.211 38.6423 81.101 40.8572 81.4859 42.5896C82.2007 45.7933 82.4049 52.5488 78.6817 57.5482C76.0268 61.1079 71.8637 63.0934 66.3103 63.4494C66.2867 63.4494 66.2632 63.4573 66.2396 63.4652C62.6106 62.0651 57.5992 61.9622 51.5195 63.22C51.0247 63.3228 50.7026 63.8133 50.8047 64.3116C50.9069 64.81 51.3939 65.1264 51.8887 65.0315C60.7804 63.1963 67.0801 64.3512 69.625 68.2985C71.0311 70.4739 72.8691 71.7554 74.6522 72.9973C77.7391 75.1489 80.6612 77.1819 81.3917 83.9137C82.3578 92.8525 78.3047 98.2316 69.0045 100.344Z" fill="#CA3A7B"/>
<path d="M57.1365 79.397C56.9245 79.049 56.4767 78.9382 56.1311 79.1439C53.971 80.457 49.965 79.7609 48.3234 78.6455C45.8648 76.9843 44.176 75.1412 43.3591 71.1306C43.2805 70.7351 43.202 70.3396 43.1234 69.944C42.4165 66.3369 41.6781 62.6032 38.544 59.8741C37.735 59.17 36.9102 58.64 36.0226 58.2682C36.0854 58.2524 36.1483 58.2366 36.2111 58.2208C36.2504 58.2366 36.2897 58.2524 36.3289 58.2603C39.3845 59.0118 41.8745 62.0336 42.5893 63.8372C42.8328 64.4542 43.0999 65.53 43.4062 66.772C44.1681 69.8808 45.1186 73.749 46.8624 75.1649C48.2605 76.2961 50.185 76.8894 52.3765 76.8894C53.3348 76.8894 54.3402 76.7787 55.3771 76.5493C55.4006 76.5413 55.4242 76.5413 55.4477 76.5334C55.8248 76.4227 56.0526 76.0272 55.9505 75.6396C55.8641 75.3152 55.5813 75.0937 55.2592 75.0858C55.165 75.07 55.0157 75.0463 54.8351 75.0937C54.7565 75.1175 54.6858 75.1491 54.623 75.1966C51.8659 75.7107 49.3288 75.2757 47.7814 74.0179C46.4225 72.9184 45.5035 69.1609 44.8279 66.4239C44.5059 65.1266 44.231 64.0033 43.9482 63.2914C43.2805 61.6143 41.3011 58.8852 38.4419 57.4851C40.5235 56.6308 41.7881 55.6024 42.7778 54.7876C43.0763 54.5424 43.3591 54.313 43.6261 54.1232C44.1053 53.7751 44.5844 53.4033 45.0871 53.0078C46.6424 51.7896 48.2448 50.5239 49.9493 50.0256C51.1511 49.6696 53.5312 49.9148 54.8351 51.5444C55.0864 51.8608 55.5499 51.9082 55.8641 51.6551C56.1783 51.402 56.2332 50.9353 55.974 50.6188C54.3324 48.57 51.4339 48.0479 49.5409 48.6096C47.5614 49.187 45.7705 50.603 44.1838 51.845C43.689 52.2326 43.2255 52.5964 42.77 52.9287C42.4715 53.1423 42.173 53.3875 41.8588 53.6485C40.06 55.1199 37.6014 57.1291 30.9012 57.5405C30.7912 57.5484 30.697 57.58 30.6027 57.6275C29.7308 57.6908 28.8904 57.8964 28.1834 58.2049C27.8142 58.3632 27.6414 58.7982 27.7985 59.1779C27.9556 59.5497 28.3876 59.7238 28.7647 59.5655C29.2438 59.352 29.8172 59.2096 30.4142 59.1384C30.5085 59.17 30.6184 59.1858 30.7206 59.1779C31.0269 59.1463 31.3254 59.1226 31.6082 59.1067C32.3622 59.1621 33.077 59.3599 33.6033 59.7554C37.2558 62.4766 37.5229 65.4509 37.9706 70.387C38.0649 71.4628 38.167 72.5703 38.3162 73.7885C39.1253 80.4807 44.9615 85.14 52.3608 85.14C52.6671 85.14 52.9735 85.1321 53.2877 85.1163C53.6883 85.0925 54.0025 84.7524 53.9789 84.341C53.9553 83.9376 53.6176 83.6291 53.2091 83.6449C46.1554 84.0088 40.5156 79.7846 39.7694 73.6145C39.628 72.42 39.5259 71.3205 39.4316 70.2605C39.0467 65.9888 38.7483 62.7376 36.0226 59.9294C36.5646 60.2142 37.0752 60.5781 37.5857 61.0211C40.3428 63.4179 40.9947 66.7403 41.686 70.2605C41.7645 70.656 41.8431 71.0594 41.9216 71.4549C42.8406 75.9402 44.8122 78.076 47.5065 79.8954C48.7083 80.7101 50.9076 81.3588 53.0599 81.3588C54.4423 81.3588 55.8091 81.0898 56.893 80.4333C57.2308 80.196 57.3408 79.7451 57.1365 79.397Z" fill="#6F2D83"/>
<path d="M59.3751 80.1717C60.7894 80.1717 61.9358 79.0631 61.9358 77.6957C61.9358 76.3283 60.7894 75.2197 59.3751 75.2197C57.9609 75.2197 56.8145 76.3283 56.8145 77.6957C56.8145 79.0631 57.9609 80.1717 59.3751 80.1717Z" fill="#EAA14F"/>
<path d="M61.5745 73.907C62.7892 73.907 63.7739 72.9047 63.7739 71.6684C63.7739 70.432 62.7892 69.4297 61.5745 69.4297C60.3598 69.4297 59.3751 70.432 59.3751 71.6684C59.3751 72.9047 60.3598 73.907 61.5745 73.907Z" fill="#EAA14F"/>
<path d="M54.9843 85.7089C56.199 85.7089 57.1837 84.7385 57.1837 83.5415C57.1837 82.3444 56.199 81.374 54.9843 81.374C53.7696 81.374 52.7849 82.3444 52.7849 83.5415C52.7849 84.7385 53.7696 85.7089 54.9843 85.7089Z" fill="#EAA14F"/>
<path d="M62.1243 85.7089C63.2392 85.7089 64.143 84.7917 64.143 83.6601C64.143 82.5286 63.2392 81.6113 62.1243 81.6113C61.0094 81.6113 60.1056 82.5286 60.1056 83.6601C60.1056 84.7917 61.0094 85.7089 62.1243 85.7089Z" fill="#EAA14F"/>
<path d="M66.154 78.3291C67.2689 78.3291 68.1727 77.4118 68.1727 76.2803C68.1727 75.1487 67.2689 74.2314 66.154 74.2314C65.0391 74.2314 64.1353 75.1487 64.1353 76.2803C64.1353 77.4118 65.0391 78.3291 66.154 78.3291Z" fill="#EAA14F"/>
<path d="M54.4344 76.486C55.5493 76.486 56.4531 75.59 56.4531 74.4847C56.4531 73.3794 55.5493 72.4834 54.4344 72.4834C53.3195 72.4834 52.4156 73.3794 52.4156 74.4847C52.4156 75.59 53.3195 76.486 54.4344 76.486Z" fill="#EAA14F"/>
<path d="M111.202 77.9889V80.0931H95.0677V57.1133H110.715V59.2175H97.4792V67.3889H109.277V69.4536H97.4792V77.9889H111.202Z" fill="#CA407E"/>
<path d="M132.457 80.0931L127.241 72.7048C126.652 72.768 126.047 72.8076 125.419 72.8076H119.292V80.0931H116.881V57.1133H125.419C128.333 57.1133 130.611 57.8173 132.268 59.2175C133.918 60.6176 134.743 62.5478 134.743 64.9921C134.743 66.7878 134.295 68.2986 133.392 69.5406C132.488 70.7746 131.2 71.6685 129.527 72.2143L135.104 80.0931H132.457ZM130.533 69.2242C131.726 68.2195 132.323 66.8036 132.323 64.9921C132.323 63.1331 131.726 61.7013 130.533 60.7046C129.339 59.7079 127.611 59.2095 125.348 59.2095H119.284V70.7351H125.348C127.611 70.7351 129.339 70.2367 130.533 69.2242Z" fill="#CA407E"/>
<path d="M158.292 70.1971C159.109 71.1701 159.517 72.42 159.517 73.9546C159.517 75.9243 158.794 77.4431 157.349 78.5031C155.904 79.5631 153.767 80.0931 150.94 80.0931H140.445V57.1133H150.288C152.833 57.1133 154.804 57.6275 156.202 58.6558C157.6 59.6842 158.307 61.1397 158.307 63.0224C158.307 64.288 158.001 65.3718 157.381 66.2578C156.76 67.1437 155.904 67.8082 154.82 68.2433C156.32 68.5676 157.475 69.2242 158.292 70.1971ZM142.857 59.1146V67.4522H150.123C151.969 67.4522 153.39 67.0963 154.396 66.3843C155.393 65.6724 155.896 64.6361 155.896 63.2834C155.896 61.9228 155.393 60.8945 154.396 60.1825C153.398 59.4706 151.976 59.1146 150.123 59.1146H142.857ZM155.535 77.0397C156.579 76.3436 157.098 75.244 157.098 73.7568C157.098 70.8933 155.032 69.4536 150.9 69.4536H142.849V78.0918H150.9C152.95 78.0918 154.49 77.7437 155.535 77.0397Z" fill="#6F2D83"/>
<path d="M167.074 79.1282C165.746 78.3767 164.701 77.3246 163.947 75.9957C163.185 74.6588 162.808 73.1479 162.808 71.463C162.808 69.7781 163.185 68.2672 163.947 66.9303C164.709 65.5935 165.754 64.5572 167.074 63.8136C168.401 63.07 169.886 62.6982 171.543 62.6982C173.193 62.6982 174.685 63.07 176.012 63.8136C177.34 64.5572 178.377 65.6014 179.123 66.9303C179.869 68.2672 180.246 69.7781 180.246 71.463C180.246 73.1479 179.869 74.6588 179.123 75.9957C178.377 77.3325 177.332 78.3767 176.012 79.1282C174.685 79.8797 173.2 80.2594 171.543 80.2594C169.886 80.2594 168.401 79.8797 167.074 79.1282ZM174.818 77.3484C175.785 76.7867 176.539 75.9957 177.081 74.9673C177.623 73.939 177.898 72.7682 177.898 71.4551C177.898 70.142 177.623 68.9712 177.081 67.9429C176.539 66.9145 175.785 66.1235 174.818 65.5618C173.852 65.0002 172.76 64.7233 171.543 64.7233C170.325 64.7233 169.234 65.0002 168.267 65.5618C167.301 66.1235 166.539 66.9145 165.99 67.9429C165.432 68.9712 165.157 70.142 165.157 71.4551C165.157 72.7682 165.432 73.939 165.99 74.9673C166.547 75.9957 167.301 76.7867 168.267 77.3484C169.234 77.91 170.325 78.1869 171.543 78.1869C172.76 78.1869 173.852 77.91 174.818 77.3484Z" fill="#6F2D83"/>
<path d="M194 79.0405C193.568 79.4361 193.026 79.7367 192.39 79.9423C191.746 80.148 191.078 80.2508 190.387 80.2508C188.777 80.2508 187.543 79.8158 186.672 78.9377C185.8 78.0596 185.368 76.8256 185.368 75.2277V64.7859H182.304V62.8162H185.368V59.043H187.685V62.8162H192.9V64.7859H187.685V75.0932C187.685 76.1216 187.936 76.9047 188.447 77.4426C188.957 77.9805 189.688 78.2495 190.646 78.2495C191.125 78.2495 191.589 78.1704 192.029 78.0201C192.476 77.8698 192.861 77.6483 193.183 77.3635L194 79.0405Z" fill="#6F2D83"/>
<path d="M100.417 95.8264V96.4355H95.7668V89.8145H100.276V90.4236H96.4659V92.7809H99.8671V93.3742H96.4659V95.8343H100.417V95.8264Z" fill="#4B272A"/>
<path d="M105.908 91.9659C106.277 92.3298 106.457 92.8598 106.457 93.548V96.4353H105.79V93.6192C105.79 93.105 105.664 92.7095 105.405 92.4405C105.146 92.1716 104.784 92.0371 104.305 92.0371C103.771 92.0371 103.355 92.1953 103.041 92.5117C102.734 92.8281 102.577 93.2711 102.577 93.8328V96.4432H101.909V91.4675H102.546V92.3851C102.726 92.0845 102.978 91.8472 103.3 91.6811C103.622 91.515 103.999 91.428 104.423 91.428C105.044 91.4201 105.538 91.602 105.908 91.9659Z" fill="#4B272A"/>
<path d="M109.026 96.1584C108.641 95.9448 108.343 95.6442 108.123 95.2566C107.903 94.869 107.793 94.4339 107.793 93.9435C107.793 93.4609 107.903 93.0258 108.123 92.6382C108.343 92.2506 108.641 91.9579 109.026 91.7364C109.411 91.5229 109.851 91.4121 110.338 91.4121C110.762 91.4121 111.147 91.4991 111.477 91.6652C111.814 91.8314 112.074 92.0766 112.27 92.4009L111.775 92.7411C111.61 92.4958 111.406 92.3139 111.155 92.1873C110.903 92.0608 110.628 92.0054 110.338 92.0054C109.984 92.0054 109.662 92.0845 109.372 92.2506C109.089 92.4088 108.861 92.6382 108.704 92.9388C108.547 93.2315 108.468 93.5717 108.468 93.9514C108.468 94.339 108.547 94.6791 108.704 94.9718C108.861 95.2645 109.089 95.4939 109.372 95.6521C109.654 95.8103 109.976 95.8894 110.338 95.8894C110.628 95.8894 110.903 95.8262 111.155 95.7075C111.406 95.5888 111.61 95.4069 111.775 95.1617L112.27 95.5018C112.074 95.8262 111.807 96.0714 111.469 96.2375C111.131 96.4036 110.754 96.4906 110.33 96.4906C109.843 96.4827 109.411 96.372 109.026 96.1584Z" fill="#4B272A"/>
<path d="M114.226 96.1505C113.841 95.929 113.543 95.6284 113.323 95.2487C113.103 94.8611 112.993 94.426 112.993 93.9435C112.993 93.4609 113.103 93.0258 113.323 92.6382C113.543 92.2506 113.841 91.9579 114.226 91.7364C114.611 91.5229 115.035 91.4121 115.514 91.4121C115.993 91.4121 116.417 91.5229 116.802 91.7364C117.187 91.95 117.486 92.2506 117.698 92.6382C117.918 93.0258 118.02 93.4609 118.02 93.9435C118.02 94.426 117.91 94.8611 117.698 95.2487C117.486 95.6363 117.179 95.9369 116.802 96.1505C116.417 96.3641 115.993 96.4748 115.514 96.4748C115.035 96.4827 114.603 96.372 114.226 96.1505ZM116.457 95.6442C116.732 95.486 116.952 95.2566 117.109 94.956C117.266 94.6633 117.344 94.3232 117.344 93.9435C117.344 93.5638 117.266 93.2315 117.109 92.9309C116.952 92.6382 116.732 92.4088 116.457 92.2427C116.182 92.0766 115.86 91.9975 115.514 91.9975C115.161 91.9975 114.846 92.0766 114.572 92.2427C114.297 92.4009 114.077 92.6303 113.912 92.9309C113.755 93.2236 113.676 93.5638 113.676 93.9435C113.676 94.3232 113.755 94.6633 113.912 94.956C114.069 95.2487 114.289 95.4781 114.572 95.6442C114.846 95.8024 115.168 95.8815 115.514 95.8815C115.86 95.8815 116.174 95.8024 116.457 95.6442Z" fill="#4B272A"/>
<path d="M123.377 91.9659C123.746 92.3298 123.927 92.8598 123.927 93.548V96.4353H123.259V93.6192C123.259 93.105 123.133 92.7095 122.874 92.4405C122.615 92.1716 122.254 92.0371 121.774 92.0371C121.24 92.0371 120.824 92.1953 120.51 92.5117C120.203 92.8281 120.046 93.2711 120.046 93.8328V96.4432H119.379V91.4675H120.015V92.3851C120.196 92.0845 120.447 91.8472 120.769 91.6811C121.091 91.515 121.468 91.428 121.892 91.428C122.521 91.4201 123.008 91.602 123.377 91.9659Z" fill="#4B272A"/>
<path d="M128.341 96.1271C128.215 96.2378 128.058 96.3248 127.878 96.3881C127.689 96.4514 127.501 96.4751 127.296 96.4751C126.833 96.4751 126.479 96.3486 126.228 96.0954C125.977 95.8423 125.851 95.4863 125.851 95.0275V92.0215H124.971V91.452H125.851V90.3604H126.519V91.452H128.019V92.0215H126.519V94.988C126.519 95.2807 126.589 95.5101 126.739 95.6683C126.888 95.8265 127.1 95.8977 127.375 95.8977C127.516 95.8977 127.642 95.8739 127.775 95.8344C127.901 95.7869 128.011 95.7236 128.105 95.6445L128.341 96.1271Z" fill="#4B272A"/>
<path d="M130.894 91.6731C131.2 91.499 131.585 91.4199 132.041 91.4199V92.0686L131.884 92.0607C131.365 92.0607 130.957 92.2189 130.666 92.5432C130.375 92.8675 130.226 93.3184 130.226 93.8959V96.4272H129.559V91.4516H130.195V92.4245C130.344 92.1002 130.58 91.8471 130.894 91.6731Z" fill="#4B272A"/>
<path d="M133.926 96.1505C133.541 95.929 133.243 95.6284 133.023 95.2487C132.803 94.8611 132.693 94.426 132.693 93.9435C132.693 93.4609 132.803 93.0258 133.023 92.6382C133.243 92.2506 133.541 91.9579 133.926 91.7364C134.311 91.5229 134.735 91.4121 135.214 91.4121C135.693 91.4121 136.117 91.5229 136.502 91.7364C136.887 91.95 137.186 92.2506 137.398 92.6382C137.618 93.0258 137.72 93.4609 137.72 93.9435C137.72 94.426 137.61 94.8611 137.398 95.2487C137.186 95.6363 136.879 95.9369 136.502 96.1505C136.117 96.3641 135.693 96.4748 135.214 96.4748C134.743 96.4827 134.311 96.372 133.926 96.1505ZM136.157 95.6442C136.432 95.486 136.652 95.2566 136.809 94.956C136.966 94.6633 137.044 94.3232 137.044 93.9435C137.044 93.5638 136.966 93.2315 136.809 92.9309C136.652 92.6382 136.432 92.4088 136.157 92.2427C135.882 92.0845 135.56 91.9975 135.214 91.9975C134.861 91.9975 134.547 92.0766 134.272 92.2427C133.997 92.4088 133.777 92.6303 133.612 92.9309C133.455 93.2236 133.376 93.5638 133.376 93.9435C133.376 94.3232 133.455 94.6633 133.612 94.956C133.769 95.2487 133.989 95.4781 134.272 95.6442C134.554 95.8103 134.869 95.8815 135.214 95.8815C135.568 95.8815 135.882 95.8024 136.157 95.6442Z" fill="#4B272A"/>
<path d="M146.18 96.4355L144.679 94.3076C144.514 94.3234 144.334 94.3392 144.153 94.3392H142.386V96.4355H141.694V89.8145H144.153C144.994 89.8145 145.653 90.0201 146.125 90.4236C146.604 90.827 146.839 91.3807 146.839 92.0848C146.839 92.5989 146.706 93.0419 146.447 93.3979C146.187 93.7539 145.818 94.0149 145.331 94.1652L146.942 96.4355H146.18ZM145.622 93.303C145.968 93.0103 146.14 92.6068 146.14 92.0848C146.14 91.5468 145.968 91.1355 145.622 90.8507C145.276 90.5659 144.781 90.4236 144.129 90.4236H142.386V93.746H144.129C144.781 93.738 145.276 93.5877 145.622 93.303Z" fill="#4B272A"/>
<path d="M152.636 94.1492H148.505C148.544 94.6634 148.74 95.0826 149.094 95.3991C149.447 95.7155 149.903 95.8737 150.445 95.8737C150.751 95.8737 151.034 95.8183 151.293 95.7076C151.552 95.5968 151.772 95.4386 151.961 95.2171L152.338 95.6522C152.118 95.9211 151.843 96.1189 151.513 96.2613C151.183 96.4037 150.822 96.467 150.429 96.467C149.918 96.467 149.471 96.3562 149.078 96.1426C148.685 95.9211 148.379 95.6206 148.159 95.2409C147.939 94.8532 147.829 94.4182 147.829 93.9356C147.829 93.4531 147.931 93.018 148.143 92.6304C148.355 92.2428 148.638 91.9501 149.007 91.7286C149.377 91.515 149.785 91.4043 150.241 91.4043C150.696 91.4043 151.105 91.515 151.474 91.7286C151.835 91.9422 152.118 92.2428 152.33 92.6225C152.534 93.0022 152.636 93.4373 152.636 93.9356V94.1492ZM149.054 92.4564C148.732 92.7649 148.552 93.1604 148.505 93.6509H152.008C151.961 93.1604 151.78 92.757 151.458 92.4564C151.136 92.1479 150.735 91.9976 150.248 91.9976C149.777 91.9976 149.377 92.1479 149.054 92.4564Z" fill="#4B272A"/>
<path d="M158.582 91.4597V95.8262C158.582 96.6726 158.378 97.2976 157.97 97.701C157.561 98.1044 156.941 98.3101 156.116 98.3101C155.66 98.3101 155.228 98.2389 154.812 98.1044C154.404 97.9699 154.066 97.7801 153.814 97.5428L154.152 97.0286C154.388 97.2422 154.679 97.4083 155.024 97.527C155.362 97.6456 155.723 97.7089 156.1 97.7089C156.729 97.7089 157.184 97.5665 157.483 97.2659C157.773 96.9732 157.923 96.5144 157.923 95.8974V95.2646C157.718 95.581 157.443 95.8183 157.114 95.9844C156.776 96.1505 156.407 96.2297 155.998 96.2297C155.535 96.2297 155.111 96.1268 154.733 95.9211C154.356 95.7155 154.058 95.4307 153.838 95.0589C153.626 94.6871 153.516 94.2758 153.516 93.8091C153.516 93.3423 153.626 92.9231 153.838 92.5592C154.058 92.1953 154.349 91.9106 154.726 91.7049C155.103 91.4992 155.527 91.4043 155.99 91.4043C156.407 91.4043 156.791 91.4913 157.129 91.6574C157.467 91.8235 157.742 92.0767 157.946 92.3931V91.4359H158.582V91.4597ZM157.027 95.4149C157.318 95.2567 157.538 95.0431 157.703 94.7662C157.86 94.4894 157.938 94.1729 157.938 93.817C157.938 93.461 157.86 93.1525 157.703 92.8756C157.546 92.5988 157.318 92.3852 157.035 92.2349C156.752 92.0767 156.422 92.0055 156.061 92.0055C155.707 92.0055 155.385 92.0846 155.095 92.2349C154.812 92.3852 154.584 92.5988 154.427 92.8756C154.27 93.1525 154.192 93.4689 154.192 93.8249C154.192 94.1809 154.27 94.4894 154.427 94.7741C154.584 95.051 154.812 95.2646 155.095 95.4228C155.378 95.581 155.7 95.6522 156.061 95.6522C156.414 95.6443 156.736 95.5731 157.027 95.4149Z" fill="#4B272A"/>
<path d="M160.444 90.2259C160.35 90.131 160.303 90.0202 160.303 89.8858C160.303 89.7592 160.35 89.6484 160.444 89.5535C160.538 89.4586 160.656 89.4111 160.79 89.4111C160.931 89.4111 161.041 89.4586 161.135 89.5456C161.23 89.6405 161.277 89.7434 161.277 89.8699C161.277 90.0123 161.23 90.1231 161.135 90.218C161.041 90.3129 160.923 90.3604 160.79 90.3604C160.656 90.3683 160.538 90.3208 160.444 90.2259ZM160.452 91.4599H161.12V96.4356H160.452V91.4599Z" fill="#4B272A"/>
<path d="M163.712 96.1505C163.327 95.929 163.028 95.6284 162.808 95.2487C162.588 94.8611 162.479 94.426 162.479 93.9435C162.479 93.4609 162.588 93.0258 162.808 92.6382C163.028 92.2506 163.327 91.9579 163.712 91.7364C164.097 91.5229 164.521 91.4121 165 91.4121C165.479 91.4121 165.903 91.5229 166.288 91.7364C166.673 91.95 166.971 92.2506 167.184 92.6382C167.403 93.0258 167.506 93.4609 167.506 93.9435C167.506 94.426 167.396 94.8611 167.184 95.2487C166.971 95.6363 166.665 95.9369 166.288 96.1505C165.903 96.3641 165.479 96.4748 165 96.4748C164.521 96.4827 164.097 96.372 163.712 96.1505ZM165.942 95.6442C166.217 95.486 166.437 95.2566 166.594 94.956C166.752 94.6633 166.83 94.3232 166.83 93.9435C166.83 93.5638 166.752 93.2315 166.594 92.9309C166.437 92.6382 166.217 92.4088 165.942 92.2427C165.668 92.0766 165.346 91.9975 165 91.9975C164.646 91.9975 164.332 92.0766 164.057 92.2427C163.782 92.4009 163.562 92.6303 163.398 92.9309C163.24 93.2236 163.162 93.5638 163.162 93.9435C163.162 94.3232 163.24 94.6633 163.398 94.956C163.555 95.2487 163.775 95.4781 164.057 95.6442C164.332 95.8024 164.654 95.8815 165 95.8815C165.353 95.8815 165.668 95.8024 165.942 95.6442Z" fill="#4B272A"/>
<path d="M172.863 91.9659C173.232 92.3298 173.412 92.8598 173.412 93.548V96.4353H172.745V93.6192C172.745 93.105 172.619 92.7095 172.36 92.4405C172.101 92.1716 171.739 92.0371 171.26 92.0371C170.726 92.0371 170.31 92.1953 169.996 92.5117C169.689 92.8281 169.532 93.2711 169.532 93.8328V96.4432H168.865V91.4675H169.501V92.3851C169.681 92.0845 169.933 91.8472 170.255 91.6811C170.577 91.515 170.954 91.428 171.378 91.428C172.006 91.4201 172.501 91.602 172.863 91.9659Z" fill="#4B272A"/>
<path d="M178.44 91.9026C178.785 92.227 178.958 92.7095 178.958 93.3423V96.4274H178.322V95.6522C178.172 95.9132 177.953 96.111 177.662 96.2613C177.371 96.4037 177.026 96.4828 176.625 96.4828C176.075 96.4828 175.635 96.3483 175.313 96.0873C174.991 95.8262 174.826 95.4703 174.826 95.0352C174.826 94.6159 174.976 94.2758 175.282 94.0147C175.588 93.7537 176.067 93.6271 176.735 93.6271H178.306V93.3265C178.306 92.8994 178.188 92.575 177.953 92.3456C177.717 92.1241 177.363 92.0134 176.908 92.0134C176.594 92.0134 176.295 92.0688 176.005 92.1716C175.714 92.2744 175.47 92.4168 175.266 92.5988L174.968 92.1004C175.219 91.8868 175.518 91.7207 175.871 91.602C176.224 91.4834 176.594 91.428 176.979 91.428C177.599 91.4201 178.094 91.5783 178.44 91.9026ZM177.685 95.6918C177.953 95.5177 178.157 95.2646 178.29 94.9403V94.1255H176.743C175.895 94.1255 175.478 94.4182 175.478 95.0115C175.478 95.3041 175.588 95.5335 175.808 95.6997C176.028 95.8658 176.334 95.9528 176.727 95.9528C177.096 95.9528 177.418 95.8658 177.685 95.6918Z" fill="#4B272A"/>
<path d="M180.772 89.4111H181.44V96.4277H180.772V89.4111Z" fill="#4B272A"/>
<path d="M100.135 100.763V107.779H99.499V106.798C99.2948 107.131 99.0356 107.392 98.7057 107.566C98.3758 107.74 98.0066 107.827 97.5903 107.827C97.1268 107.827 96.7105 107.716 96.3335 107.502C95.9565 107.289 95.6658 106.988 95.4538 106.601C95.2417 106.213 95.1317 105.778 95.1317 105.287C95.1317 104.797 95.2417 104.354 95.4538 103.974C95.6658 103.587 95.9643 103.294 96.3335 103.08C96.7105 102.867 97.1268 102.764 97.5903 102.764C97.9909 102.764 98.3522 102.851 98.6743 103.017C98.9963 103.183 99.2634 103.429 99.4676 103.753V100.763H100.135ZM98.58 106.996C98.8549 106.838 99.0749 106.608 99.2398 106.308C99.3969 106.015 99.4755 105.675 99.4755 105.295C99.4755 104.916 99.3969 104.583 99.2398 104.283C99.0827 103.99 98.8628 103.761 98.58 103.595C98.3051 103.436 97.9909 103.349 97.6453 103.349C97.2918 103.349 96.9776 103.429 96.7027 103.595C96.4278 103.753 96.2078 103.982 96.0429 104.283C95.8858 104.576 95.8072 104.916 95.8072 105.295C95.8072 105.675 95.8858 106.015 96.0429 106.308C96.2 106.601 96.4199 106.83 96.7027 106.996C96.9776 107.154 97.2997 107.233 97.6453 107.233C97.9909 107.233 98.3051 107.154 98.58 106.996Z" fill="#4B272A"/>
<path d="M106.292 105.501H102.161C102.2 106.015 102.396 106.434 102.75 106.751C103.103 107.067 103.559 107.225 104.101 107.225C104.407 107.225 104.69 107.17 104.949 107.059C105.208 106.948 105.428 106.79 105.617 106.569L105.994 107.004C105.774 107.273 105.499 107.47 105.169 107.613C104.839 107.755 104.478 107.819 104.085 107.819C103.575 107.819 103.127 107.708 102.734 107.494C102.341 107.273 102.035 106.972 101.815 106.592C101.595 106.205 101.485 105.77 101.485 105.287C101.485 104.805 101.587 104.37 101.799 103.982C102.012 103.594 102.294 103.302 102.663 103.08C103.033 102.867 103.441 102.756 103.897 102.756C104.352 102.756 104.761 102.867 105.13 103.08C105.491 103.294 105.774 103.594 105.986 103.974C106.19 104.354 106.292 104.789 106.292 105.287V105.501ZM102.711 103.808C102.389 104.116 102.208 104.512 102.161 105.002H105.664C105.617 104.512 105.436 104.109 105.114 103.808C104.792 103.499 104.392 103.349 103.905 103.349C103.433 103.349 103.033 103.499 102.711 103.808Z" fill="#4B272A"/>
<path d="M115.412 104.931C115.648 105.208 115.765 105.572 115.765 106.015C115.765 106.585 115.553 107.02 115.137 107.328C114.721 107.637 114.108 107.787 113.291 107.787H110.267V101.166H113.103C113.833 101.166 114.406 101.316 114.807 101.609C115.208 101.902 115.412 102.321 115.412 102.867C115.412 103.231 115.326 103.539 115.145 103.8C114.964 104.053 114.721 104.243 114.406 104.37C114.846 104.465 115.176 104.655 115.412 104.931ZM110.966 101.736V104.14H113.063C113.597 104.14 114.006 104.038 114.297 103.832C114.587 103.626 114.729 103.326 114.729 102.938C114.729 102.55 114.587 102.25 114.297 102.044C114.006 101.838 113.597 101.736 113.063 101.736H110.966ZM114.619 106.901C114.917 106.695 115.066 106.387 115.066 105.952C115.066 105.129 114.469 104.71 113.283 104.71H110.966V107.202H113.283C113.872 107.21 114.32 107.107 114.619 106.901Z" fill="#4B272A"/>
<path d="M117.941 107.502C117.556 107.281 117.258 106.98 117.038 106.6C116.818 106.213 116.708 105.778 116.708 105.295C116.708 104.812 116.818 104.377 117.038 103.99C117.258 103.602 117.556 103.309 117.941 103.088C118.326 102.874 118.75 102.764 119.229 102.764C119.709 102.764 120.133 102.874 120.518 103.088C120.903 103.302 121.201 103.602 121.413 103.99C121.633 104.377 121.735 104.812 121.735 105.295C121.735 105.778 121.625 106.213 121.413 106.6C121.201 106.988 120.895 107.288 120.518 107.502C120.133 107.716 119.709 107.826 119.229 107.826C118.75 107.826 118.326 107.724 117.941 107.502ZM120.172 106.996C120.447 106.838 120.667 106.608 120.824 106.308C120.981 106.015 121.06 105.675 121.06 105.295C121.06 104.915 120.981 104.583 120.824 104.282C120.667 103.99 120.447 103.76 120.172 103.594C119.897 103.428 119.575 103.349 119.229 103.349C118.876 103.349 118.562 103.428 118.287 103.594C118.012 103.752 117.792 103.982 117.627 104.282C117.47 104.575 117.391 104.915 117.391 105.295C117.391 105.675 117.47 106.015 117.627 106.308C117.784 106.6 118.004 106.83 118.287 106.996C118.562 107.154 118.884 107.233 119.229 107.233C119.583 107.233 119.897 107.154 120.172 106.996Z" fill="#4B272A"/>
<path d="M125.702 107.479C125.576 107.589 125.419 107.676 125.238 107.74C125.05 107.803 124.861 107.827 124.657 107.827C124.194 107.827 123.84 107.7 123.589 107.447C123.337 107.194 123.212 106.838 123.212 106.379V103.373H122.332V102.804H123.212V101.712H123.879V102.804H125.38V103.373H123.879V106.339C123.879 106.632 123.95 106.862 124.099 107.02C124.249 107.178 124.461 107.249 124.736 107.249C124.877 107.249 125.003 107.225 125.136 107.186C125.262 107.138 125.372 107.075 125.466 106.996L125.702 107.479Z" fill="#4B272A"/>
<path d="M130.124 103.254C130.47 103.579 130.643 104.061 130.643 104.694V107.779H130.006V107.004C129.857 107.265 129.637 107.463 129.346 107.613C129.056 107.755 128.71 107.834 128.31 107.834C127.76 107.834 127.32 107.7 126.998 107.439C126.676 107.178 126.511 106.822 126.511 106.387C126.511 105.967 126.66 105.627 126.966 105.366C127.273 105.105 127.752 104.979 128.42 104.979H129.991V104.678C129.991 104.251 129.873 103.927 129.637 103.697C129.401 103.476 129.048 103.365 128.592 103.365C128.278 103.365 127.98 103.42 127.689 103.523C127.398 103.626 127.155 103.768 126.951 103.95L126.652 103.452C126.904 103.238 127.202 103.072 127.556 102.954C127.909 102.835 128.278 102.78 128.663 102.78C129.284 102.772 129.779 102.93 130.124 103.254ZM129.59 102.036L128.663 101.253L127.736 102.036H127.116L128.325 100.865H129.001L130.211 102.036H129.59ZM129.37 107.043C129.637 106.869 129.841 106.616 129.975 106.292V105.477H128.427C127.579 105.477 127.163 105.77 127.163 106.363C127.163 106.656 127.273 106.885 127.493 107.051C127.713 107.217 128.019 107.304 128.412 107.304C128.781 107.304 129.103 107.217 129.37 107.043Z" fill="#4B272A"/>
<path d="M136.455 103.317C136.824 103.681 137.005 104.211 137.005 104.9V107.787H136.337V104.971C136.337 104.457 136.212 104.061 135.952 103.792C135.693 103.523 135.332 103.389 134.853 103.389C134.319 103.389 133.902 103.547 133.588 103.863C133.282 104.18 133.125 104.623 133.125 105.184V107.795H132.457V102.819H133.093V103.737C133.274 103.436 133.525 103.199 133.847 103.033C134.169 102.867 134.546 102.78 134.971 102.78C135.591 102.772 136.086 102.954 136.455 103.317Z" fill="#4B272A"/>
<path d="M138.804 101.577C138.709 101.483 138.662 101.372 138.662 101.237C138.662 101.111 138.709 101 138.804 100.905C138.898 100.81 139.016 100.763 139.149 100.763C139.291 100.763 139.401 100.81 139.495 100.897C139.589 100.992 139.636 101.095 139.636 101.222C139.636 101.364 139.589 101.475 139.495 101.57C139.401 101.664 139.283 101.712 139.149 101.712C139.016 101.72 138.898 101.672 138.804 101.577ZM138.812 102.812H139.479V107.787H138.812V102.812Z" fill="#4B272A"/>
<path d="M142.079 107.51C141.694 107.296 141.396 106.996 141.176 106.608C140.956 106.221 140.846 105.785 140.846 105.295C140.846 104.812 140.956 104.377 141.176 103.99C141.396 103.602 141.694 103.309 142.079 103.088C142.464 102.874 142.904 102.764 143.391 102.764C143.815 102.764 144.2 102.851 144.53 103.017C144.868 103.183 145.127 103.428 145.323 103.752L144.828 104.093C144.664 103.847 144.459 103.665 144.208 103.539C143.957 103.412 143.682 103.357 143.391 103.357C143.038 103.357 142.716 103.436 142.425 103.602C142.142 103.76 141.914 103.99 141.757 104.29C141.6 104.583 141.522 104.923 141.522 105.303C141.522 105.691 141.6 106.031 141.757 106.323C141.914 106.616 142.142 106.845 142.425 107.004C142.708 107.162 143.03 107.241 143.391 107.241C143.682 107.241 143.957 107.178 144.208 107.059C144.459 106.94 144.664 106.758 144.828 106.513L145.323 106.853C145.127 107.178 144.86 107.423 144.522 107.589C144.184 107.755 143.807 107.842 143.383 107.842C142.896 107.826 142.464 107.724 142.079 107.51Z" fill="#4B272A"/>
<path d="M149.84 103.254C150.186 103.579 150.358 104.061 150.358 104.694V107.779H149.722V107.004C149.573 107.265 149.353 107.463 149.062 107.613C148.772 107.755 148.426 107.834 148.025 107.834C147.476 107.834 147.036 107.7 146.714 107.439C146.392 107.178 146.227 106.822 146.227 106.387C146.227 105.967 146.376 105.627 146.682 105.366C146.989 105.105 147.468 104.979 148.135 104.979H149.706V104.678C149.706 104.251 149.589 103.927 149.353 103.697C149.117 103.476 148.764 103.365 148.308 103.365C147.994 103.365 147.696 103.42 147.405 103.523C147.114 103.626 146.871 103.768 146.667 103.95L146.368 103.452C146.619 103.238 146.918 103.072 147.271 102.954C147.625 102.835 147.994 102.78 148.379 102.78C148.999 102.772 149.494 102.93 149.84 103.254ZM149.086 107.043C149.353 106.869 149.557 106.616 149.691 106.292V105.477H148.143C147.295 105.477 146.879 105.77 146.879 106.363C146.879 106.656 146.989 106.885 147.209 107.051C147.428 107.217 147.735 107.304 148.128 107.304C148.497 107.304 148.819 107.217 149.086 107.043Z" fill="#4B272A"/>
<path d="M115.75 43.6177H110.982V49.9302H108.531V43.6177H95.0756V41.83L107.714 25.9062H110.44L98.2411 41.4186H108.602V35.8576H110.99V41.4186H115.757V43.6177H115.75Z" fill="#CA407E"/>
<path d="M122.576 48.6642C121.13 47.6833 120.007 46.2673 119.206 44.4242C118.397 42.5811 117.996 40.4136 117.996 37.9218C117.996 35.43 118.397 33.2626 119.206 31.4194C120.015 29.5763 121.138 28.1682 122.576 27.1794C124.021 26.1986 125.663 25.7002 127.501 25.7002C129.339 25.7002 130.98 26.1906 132.426 27.1794C133.871 28.1603 134.994 29.5763 135.819 31.4194C136.636 33.2626 137.044 35.43 137.044 37.9218C137.044 40.4136 136.636 42.5811 135.819 44.4242C135.002 46.2673 133.871 47.6754 132.426 48.6642C130.98 49.6451 129.339 50.1434 127.501 50.1434C125.663 50.1355 124.021 49.6451 122.576 48.6642ZM131.161 46.7103C132.214 45.9351 133.038 44.8039 133.635 43.3167C134.224 41.8296 134.523 40.0339 134.523 37.9297C134.523 35.8255 134.224 34.0299 133.635 32.5427C133.046 31.0556 132.221 29.9244 131.161 29.1491C130.108 28.3739 128.883 27.9863 127.501 27.9863C126.118 27.9863 124.893 28.3739 123.84 29.1491C122.788 29.9244 121.963 31.0556 121.374 32.5427C120.785 34.0299 120.486 35.8255 120.486 37.9297C120.486 40.0339 120.785 41.8296 121.374 43.3167C121.963 44.8039 122.788 45.9351 123.84 46.7103C124.901 47.4855 126.118 47.8731 127.501 47.8731C128.883 47.8731 130.108 47.4855 131.161 46.7103Z" fill="#CA407E"/>
<path d="M143.085 34.576C142.189 34.1093 141.482 33.4528 140.972 32.6222C140.461 31.7916 140.202 30.8423 140.202 29.7902C140.202 28.7381 140.461 27.7968 140.972 26.9741C141.482 26.1514 142.189 25.5028 143.085 25.0361C143.98 24.5693 144.986 24.332 146.101 24.332C147.216 24.332 148.222 24.5693 149.117 25.0361C150.013 25.5028 150.72 26.1514 151.23 26.9741C151.741 27.7968 152 28.7381 152 29.7902C152 30.8423 151.741 31.7837 151.23 32.6222C150.72 33.4607 150.013 34.1093 149.117 34.576C148.222 35.0428 147.216 35.2801 146.101 35.2801C144.993 35.2801 143.988 35.0507 143.085 34.576ZM149.086 32.638C149.848 31.9023 150.225 30.9531 150.225 29.7902C150.225 28.6274 149.84 27.6781 149.07 26.9425C148.3 26.2068 147.311 25.8429 146.109 25.8429C144.907 25.8429 143.917 26.2068 143.147 26.9425C142.378 27.6781 141.993 28.6274 141.993 29.7902C141.993 30.9531 142.37 31.9102 143.132 32.638C143.894 33.3737 144.883 33.7375 146.117 33.7375C147.35 33.7375 148.324 33.3737 149.086 32.638Z" fill="#CA407E"/>
</svg>
